<svg xmlns="http://www.w3.org/2000/svg" viewBox="0 0 73.7 73.7">
                                    <path d="M10.22,20.4V16.48c2.11-.1,4.75-.57,4.75-2.3L12.79,2.79H5.66L3.5,14l0,.19c0,.93.76,1.59,2.24,2a14,14,0,0,0,2.5.34V20.4a1,1,0,0,0,2,0ZM5.54,14l1.77-9.2h3.83L12.91,14C11.71,14.66,6.74,14.66,5.54,14Z"></path>
                                    <path d="M70.44,2.79H63.3L61.15,14l0,.19c0,1.73,2.64,2.2,4.74,2.3V20.4a1,1,0,1,0,2,0V16.48c2.11-.1,4.74-.57,4.74-2.3ZM63.18,14,65,4.79h3.83L70.56,14C69.36,14.66,64.38,14.66,63.18,14Z"></path>
                                    <path d="M63.36,35.69V26a6,6,0,0,0-6-6H18.78a6,6,0,0,0-6,6v9.72A4.45,4.45,0,0,0,9.29,40V65.48a1.18,1.18,0,0,0,1.18,1.18H17a1.18,1.18,0,0,0,1.18-1.18v-.3A1.18,1.18,0,0,1,19.37,64H56.73a1.17,1.17,0,0,1,1.17,1.18v.3a1.18,1.18,0,0,0,1.18,1.18h6.55a1.18,1.18,0,0,0,1.18-1.18V40A4.45,4.45,0,0,0,63.36,35.69ZM18.78,21.93H57.31a4,4,0,0,1,4,4v9.72A4.45,4.45,0,0,0,57.9,40v.61h-.82V36.11A4.14,4.14,0,0,0,52.94,32H43.11A4.14,4.14,0,0,0,39,36.11v4.52H37.13V36.11A4.14,4.14,0,0,0,33,32H23.16A4.14,4.14,0,0,0,19,36.11v4.52h-.82V40a4.45,4.45,0,0,0-3.45-4.33V26A4,4,0,0,1,18.78,21.93Zm36.3,18.7H41V36.11A2.14,2.14,0,0,1,43.11,34h9.83a2.14,2.14,0,0,1,2.14,2.14Zm-19.95,0H21V36.11A2.14,2.14,0,0,1,23.16,34H33a2.14,2.14,0,0,1,2.15,2.14Zm28.5,24H61.08a1.18,1.18,0,0,1-1.18-1.18v-.3A1.17,1.17,0,0,0,58.73,62H17.37a1.18,1.18,0,0,0-1.18,1.18v.3A1.18,1.18,0,0,1,15,64.66H12.47a1.18,1.18,0,0,1-1.18-1.18V40.16a2.55,2.55,0,0,1,2.19-2.58A2.45,2.45,0,0,1,16.19,40v1.54a1.07,1.07,0,0,0,1.07,1.07H58.84a1.06,1.06,0,0,0,1.06-1.07v-1.4a2.56,2.56,0,0,1,2.2-2.58A2.45,2.45,0,0,1,64.81,40V63.48A1.18,1.18,0,0,1,63.63,64.66Z"></path>
                                    <circle class="cls-2" cx="17.19" cy="58.63" r="1"></circle>
                                    <circle class="cls-2" cx="17.19" cy="46.63" r="1"></circle>
                                    <circle class="cls-2" cx="17.19" cy="50.63" r="1"></circle>
                                    <circle class="cls-2" cx="17.19" cy="54.63" r="1"></circle>
                                    <circle class="cls-2" cx="58.9" cy="50.63" r="1"></circle>
                                    <circle class="cls-2" cx="58.9" cy="58.63" r="1"></circle>
                                    <circle class="cls-2" cx="58.9" cy="54.63" r="1"></circle>
                                    <circle class="cls-2" cx="58.9" cy="46.63" r="1"></circle>
                                    <rect class="cls-2" x="48.96" y="24.97" width="2" height="2" rx="1"></rect>
                                    <rect class="cls-2" x="52.96" y="24.97" width="2" height="2" rx="1"></rect>
                                    <rect class="cls-2" x="56.96" y="24.97" width="2" height="2" rx="1"></rect>
                                    <rect class="cls-2" x="44.96" y="24.97" width="2" height="2" rx="1"></rect>
                                    <rect class="cls-2" x="24.96" y="24.97" width="2" height="2" rx="1"></rect>
                                    <rect class="cls-2" x="40.96" y="24.97" width="2" height="2" rx="1"></rect>
                                    <rect class="cls-2" x="16.96" y="24.97" width="2" height="2" rx="1"></rect>
                                    <rect class="cls-2" x="28.96" y="24.97" width="2" height="2" rx="1"></rect>
                                    <rect class="cls-2" x="20.96" y="24.97" width="2" height="2" rx="1"></rect>
                                    <rect class="cls-2" x="32.96" y="24.97" width="2" height="2" rx="1"></rect>
                                    <rect class="cls-2" x="36.96" y="24.97" width="2" height="2" rx="1"></rect>
                                </svg>