<svg id="be794ec8-4c07-404a-ae33-4e73db90e560" data-name="arrow" xmlns="http://www.w3.org/2000/svg" viewBox="0 0 15.02 25.02"><title>arrow</title><path d="M5.24.29l-4.95,5a1,1,0,0,0,0,1.41h0l5,5a1,1,0,1,0,1.42-1.42L2.45,6,6.66,1.71A1,1,0,0,0,5.24.29Z" transform="translate(0.01 0)" style="fill:#444;fill-rule:evenodd"/><path d="M5.24,13.3l-4.95,5a1,1,0,0,0,0,1.41h0l5,5A1,1,0,0,0,6.71,23.3L2.45,19l4.21-4.24A1,1,0,0,0,5.24,13.3Z" transform="translate(0.01 0)" style="fill:#fff;fill-rule:evenodd"/><path d="M8.35.29a1,1,0,0,0,0,1.42L12.56,6,8.3,10.29a1,1,0,0,0,1.42,1.42l5-5h0a1,1,0,0,0,0-1.41l-5-5A1,1,0,0,0,8.35.29Z" transform="translate(0.01 0)" style="fill:#444;fill-rule:evenodd"/><path d="M8.35,13.3a1,1,0,0,0,0,1.42L12.56,19,8.3,23.3a1,1,0,0,0,1.42,1.42l5-5h0a1,1,0,0,0,0-1.41l-5-5A1,1,0,0,0,8.35,13.3Z" transform="translate(0.01 0)" style="fill:#fff;fill-rule:evenodd"/></svg>