<svg xmlns="http://www.w3.org/2000/svg" width="28" height="37" viewBox="0 0 28 37"><defs><style>.cls-1,.cls-2{fill:#97bf31}.cls-1,.cls-3{fill-rule:evenodd}.cls-2{opacity:.2}.cls-3{fill:#96bf31}</style></defs><path id="Rectangle_2_copy_8" data-name="Rectangle 2 copy 8" class="cls-1" d="M956 1420v-32h-19v-2h19.063a2.277 2.277 0 0 1 1.937 2v32h-2zm-4 1v-29h-15l-.063-2H951v3h3v28a2.3 2.3 0 0 1-2 2h-20c-.1 0-2-.98-2-1.94V1391h2v30.06m15-29.06h5v5h-3a2.185 2.185 0 0 1-2-2v-3zm3 0h2v2h-2v-2zm-19-2a1 1 0 1 1-1 1 1 1 0 0 1 1-1zm6 0a1 1 0 1 1-1 1 1 1 0 0 1 1-1zm0 0a1 1 0 1 1-1 1 1 1 0 0 1 1-1zm0-4a1 1 0 1 1-1 1 1 1 0 0 1 1-1zm20 33a1 1 0 1 1-1 1 1 1 0 0 1 1-1zm-6.5-28a2.5 2.5 0 1 1-2.5 2.5 2.5 2.5 0 0 1 2.5-2.5z" transform="translate(-930 -1386)"/><path class="cls-2" d="M1 4h22v31H1z"/><path id="Rounded_Rectangle_1" data-name="Rounded Rectangle 1" class="cls-3" d="M941.982 1409a.949.949 0 0 1-.7-.29 1.081 1.081 0 0 1-.109-.16l-1.753-1.75a1.008 1.008 0 0 1-.42-.8v-.02a.976.976 0 0 1 .977-.98H941v-5a1 1 0 0 1 2 0v5h1.019a.976.976 0 0 1 .977.98v.02a1.008 1.008 0 0 1-.424.8l-1.749 1.74a.852.852 0 0 1-.113.17.957.957 0 0 1-.7.29h-.034zm-3.982 2h8a1 1 0 0 1 0 2h-8a1 1 0 0 1 0-2z" transform="translate(-930 -1386)"/></svg>