<?xml version="1.0" encoding="UTF-8"?> <svg xmlns="http://www.w3.org/2000/svg" viewBox="0 0 60 60"><path class="body" d="M33.9,36.4H11a.9.9,0,0,0-1,1,1,1,0,0,0,1,1H33.9a1.1,1.1,0,0,0,1-1A1,1,0,0,0,33.9,36.4Z"></path><path class="body" d="M57.7,13.1H30l-.5.2L1.8,28a1.1,1.1,0,0,0-.5.9v17a1,1,0,0,0,1,1H43a1,1,0,0,0,.7-.4L58.5,29.8a1.4,1.4,0,0,0,.2-.7v-15A1,1,0,0,0,57.7,13.1ZM6.3,42.9a1,1,0,0,1-1-1V31.3a.6.6,0,0,1,.1-.4H40a1,1,0,0,1,1,1v11ZM31,17.2H53.3L41.9,28.6a1.1,1.1,0,0,1-.7.3H8.7L30.5,17.3ZM43,30.7a1.1,1.1,0,0,1,.3-.7L54.7,18.6v9.5a1.4,1.4,0,0,1-.2.7L43,41.3Z"></path></svg> 