<?xml version="1.0" encoding="UTF-8"?> <svg xmlns="http://www.w3.org/2000/svg" viewBox="0 0 200 200"><path class="cls-2" d="M171.9,103.26a23.21,23.21,0,0,0,5.3-44A23.18,23.18,0,0,0,138,54.36a29.77,29.77,0,0,0-10.69-7.93,29.76,29.76,0,0,0-54.53.09,29.65,29.65,0,0,0-10.5,7.86A23.19,23.19,0,0,0,23,59.29a23.21,23.21,0,0,0,18.65,42.5V113H29.66a2.49,2.49,0,0,0-2.5,2.5h0a2.49,2.49,0,0,0,2.5,2.5h5.63c-12.09,8-18.23,14.87-18.23,20.48,0,11.39,1.94,19.45,27.05,19.45,10.71,0,17.2-1.47,21.12-4,.16,5,.92,10,4.73,13.76,5,5,14.3,7.27,30.05,7.27s25-2.24,30.05-7.27c3.84-3.83,4.59-8.78,4.74-13.84,3.91,2.62,10.42,4.12,21.25,4.12,25.1,0,27-8.06,27-19.45,0-5.61-6.13-12.49-18.22-20.48h5.63a2.5,2.5,0,0,0,2.5-2.5h0a2.5,2.5,0,0,0-2.5-2.5H158.55V101.79A23.28,23.28,0,0,0,171.9,103.26Zm-9.64-51.54a18.59,18.59,0,0,1,10.85,10.77l.26.63.58.23a18.64,18.64,0,0,1,11.79,15,18.24,18.24,0,0,1-18.1,20.27,18.05,18.05,0,0,1-9.09-2.44V95l13.19-13.19a2.5,2.5,0,0,0,0-3.53h0a2.5,2.5,0,0,0-3.54,0L158.55,88V71.34a2.5,2.5,0,0,0-2.5-2.5h0a2.5,2.5,0,0,0-2.5,2.5V88l-9-9c0-.18.07-.37.1-.55v0c.08-.49.14-1,.19-1.47a.43.43,0,0,0,0-.11c.05-.46.08-.92.11-1.38a1.49,1.49,0,0,1,0-.21c0-.52,0-1,0-1.57,0-.7,0-1.39-.08-2.09,0-.33-.06-.66-.1-1s-.06-.68-.11-1-.14-.91-.23-1.37c0-.18-.06-.37-.1-.56-.11-.56-.25-1.11-.39-1.65,0-.06,0-.12,0-.18a29.26,29.26,0,0,0-3-7.2A18.23,18.23,0,0,1,162.26,51.72Zm-27,44,.11-.11A29.48,29.48,0,0,0,138.73,92c.16-.2.31-.39.46-.6s.22-.31.33-.46.39-.54.57-.82c.08-.11.15-.23.23-.35.21-.32.41-.65.6-1l.15-.26c.22-.37.43-.75.63-1.13a1.3,1.3,0,0,1,.08-.17c.21-.42.42-.84.62-1.27l0-.08c.2-.45.39-.9.57-1.36L153.55,95v1.25A18.16,18.16,0,0,1,135,95.93Zm-59.68-45,1-.4.2-.52a25.2,25.2,0,0,1,21-16.07A24.67,24.67,0,0,1,123,49.26l.4,1,1,.4a24.82,24.82,0,0,1,10.9,8.46l.61.92a24.68,24.68,0,0,1,3.84,10,1,1,0,0,1,0,.17c.08.53.14,1.07.18,1.61s.07,1.22.07,1.84c0,.47,0,.94,0,1.41l0,.35c0,.37-.06.73-.1,1.09,0,.11,0,.22,0,.33-.05.39-.11.78-.18,1.16a1.18,1.18,0,0,1,0,.2,24.74,24.74,0,0,1-2.35,6.84l0,0a27.45,27.45,0,0,1-1.49,2.5.21.21,0,0,0,0,.06c-.24.34-.49.68-.74,1l-.29.37c-.17.22-.36.44-.54.66s-.25.29-.38.44l-.51.55-.43.45-.68.65-.72.64c-.17.15-.33.29-.51.43l-.55.43c-.17.14-.35.28-.54.41a24.68,24.68,0,0,1-27.31,1.18V92.58l18.16-18.16a2.5,2.5,0,0,0,0-3.54h0a2.5,2.5,0,0,0-3.53,0L102.51,85.51V60.91a2.5,2.5,0,0,0-2.5-2.5h0a2.5,2.5,0,0,0-2.5,2.5v24.6L82.89,70.88a2.52,2.52,0,0,0-3.54,0h0a2.52,2.52,0,0,0,0,3.54L97.51,92.58V95a24.78,24.78,0,0,1-34.18-33.5l.48-.78c.17-.28.33-.56.51-.83l.05-.07A24.81,24.81,0,0,1,75.59,50.73ZM46.61,95,57.15,84.5a29.86,29.86,0,0,0,8,11.43,18.14,18.14,0,0,1-18.5.36Zm-14.1,3.61A18.23,18.23,0,0,1,14.42,78.37a18.59,18.59,0,0,1,11.79-15l.58-.23.25-.63A18.61,18.61,0,0,1,37.9,51.72a18.22,18.22,0,0,1,21.29,6.94v0c-.21.34-.4.7-.59,1s-.41.8-.61,1.21l-.21.46c-.25.55-.48,1.1-.69,1.66l0,.09a29.65,29.65,0,0,0-1.94,10.53A29.19,29.19,0,0,0,55.6,79l-9,9V71.34a2.5,2.5,0,0,0-2.5-2.5h0a2.5,2.5,0,0,0-2.5,2.5V88L32,78.32a2.49,2.49,0,0,0-3.53,0h0a2.49,2.49,0,0,0,0,3.53L41.61,95v1.17A18.09,18.09,0,0,1,32.51,98.65ZM46.61,113V101.84a23.07,23.07,0,0,0,22.77-2.78,29.66,29.66,0,0,0,28.13,1.58v16.71H80.19a2.5,2.5,0,0,0-2.5,2.5h0a2.5,2.5,0,0,0,2.5,2.5H91.06c-7.17,4.59-14.82,10.2-19.92,15.89C71,132.68,64.85,125.88,52.93,118h5.63a2.5,2.5,0,0,0,2.5-2.5h0a2.5,2.5,0,0,0-2.5-2.5Zm-2.5,39.93c-22,0-22-5.44-22-14.45,0-3.94,7.29-10.94,19-18.26a5.66,5.66,0,0,1,6.06,0c11.73,7.32,19,14.32,19,18.26C66.15,147.49,66.15,152.93,44.11,152.93Zm55.9,17c-29.82,0-29.82-7.88-29.82-19.82,0-5.54,9.5-14.78,25.42-24.72a8.27,8.27,0,0,1,8.81,0c15.91,9.94,25.42,19.18,25.42,24.72C129.84,162,129.84,169.92,100,169.92Zm78.08-31.44c0,9,0,14.45-22,14.45S134,147.49,134,138.48c0-3.94,7.29-10.94,19-18.26a5.66,5.66,0,0,1,6.06,0C170.81,127.54,178.09,134.54,178.09,138.48Zm-39-23h0a2.5,2.5,0,0,0,2.5,2.5h5.63c-12,7.94-18.14,14.79-18.21,20.37-5.11-5.73-12.82-11.39-20-16h10.87a2.5,2.5,0,0,0,2.5-2.5h0a2.5,2.5,0,0,0-2.5-2.5H102.51V100.56a29.65,29.65,0,0,0,28.28-1.49,23.08,23.08,0,0,0,22.76,2.77V113h-12A2.5,2.5,0,0,0,139.09,115.5Z" transform="translate(0)"></path></svg> 