<?xml version="1.0" encoding="UTF-8"?> <svg xmlns="http://www.w3.org/2000/svg" viewBox="0 0 60 60"><path class="body" d="M37.3,20.7H8.8a2,2,0,0,0-2,2V51.2a2,2,0,0,0,2,2H37.3a2,2,0,0,0,2-2V22.7A2,2,0,0,0,37.3,20.7Zm-2,4V49.2H10.8V24.7Z"></path><path class="body" d="M48.3,48.8V25.1l1.5,1.4a1,1,0,0,0,1.4,0h0a1,1,0,0,0,0-1.4L48,22a1,1,0,0,0-1.4,0l-3.1,3.1a1,1,0,0,0,0,1.4h0a1,1,0,0,0,1.4,0l1.4-1.4V48.8l-1.4-1.5a1,1,0,0,0-1.4,0h0a1.1,1.1,0,0,0,0,1.5l3.1,3.1a1,1,0,0,0,1.4,0l3.2-3.1a1.1,1.1,0,0,0,0-1.5h0a1,1,0,0,0-1.4,0Z"></path><path class="body" d="M34.9,11.7H11.2l1.5-1.4a1.1,1.1,0,0,0,0-1.5h0a1.4,1.4,0,0,0-1.5,0L8.1,12a1,1,0,0,0,0,1.4l3.1,3.1a1.1,1.1,0,0,0,1.5,0h0a1,1,0,0,0,0-1.4l-1.5-1.4H34.9l-1.4,1.4a1,1,0,0,0,0,1.4h0a1,1,0,0,0,1.4,0L38,13.4A1,1,0,0,0,38,12L34.9,8.8a1.2,1.2,0,0,0-1.4,0h0a1.1,1.1,0,0,0,0,1.5Z"></path></svg> 