<?xml version="1.0" encoding="UTF-8"?> <svg xmlns="http://www.w3.org/2000/svg" viewBox="0 0 200 200"><path d="M134.37,97.08a14.55,14.55,0,1,0-14.55,14.55A14.56,14.56,0,0,0,134.37,97.08Zm-26.09,0a11.55,11.55,0,1,1,11.54,11.55A11.56,11.56,0,0,1,108.28,97.08Z" transform="translate(0)"></path><path d="M166.11,128.29l24.66-20-16.48.21,15.27-28.56-14.94,6.5,3.28-31.59-11.51,11.8-9.39-31-6,15.16L131,26.14l.21,16.48L102.66,27.34l6.5,14.94L88.5,40.14,84.71,23.81H34.33L13.57,146.48l0,23.08H115.16V155.15L137,166.82l-6.5-14.94,31.58,3.28-11.79-11.51,31-9.39ZM38.55,28.81H80.74l2.5,10.78L77.57,39l11.8,11.51-31,9.39,15.16,6L55.48,80.53H50.19a2.5,2.5,0,0,0-2.5,2.5h0a2.5,2.5,0,0,0,2.5,2.5H93.91l15.51,58.87H19ZM97.76,80.53H85.58a38.06,38.06,0,1,1,26.34,53.74Zm-79.23,84V149.4h91.63v15.16ZM148,139.12a4.11,4.11,0,0,0-1,.47l-.4.25a4.24,4.24,0,0,0-1.78,2.2,4.09,4.09,0,0,0,1,4.23l2.49,2.43-18.8-1.95a3.87,3.87,0,0,0-.9,0,4.14,4.14,0,0,0-2.69,1.45,4.09,4.09,0,0,0-.61,4.26l1.38,3.17-11.51-6.15v-2.9l-2.39-9.08a41.51,41.51,0,0,0,7,.61A41,41,0,1,0,82.27,80.53H63.41L77.88,68.79a4.48,4.48,0,0,0,.92-1.05,3.86,3.86,0,0,0,.61-2,4.11,4.11,0,0,0-2.59-3.92l-3.24-1.27L91.68,55a4,4,0,0,0,1-.46l.39-.25a4.19,4.19,0,0,0,1.78-2.2,4,4,0,0,0-1-4.23l-2.49-2.43,18.81,2a4.53,4.53,0,0,0,.9,0A4.2,4.2,0,0,0,113.77,46a4.12,4.12,0,0,0,.59-4.25L113,38.53l16.65,8.9a3.9,3.9,0,0,0,1,.38l.44.1a4.31,4.31,0,0,0,3.33-.53,4.08,4.08,0,0,0,1.84-3.46l-.05-3.47,11.92,14.68a4.35,4.35,0,0,0,1.11,1,3.85,3.85,0,0,0,2,.57,4.12,4.12,0,0,0,3.86-2.6l1.26-3.22L161.87,69a4.13,4.13,0,0,0,.47,1l.23.38a4.26,4.26,0,0,0,2.19,1.78,4.08,4.08,0,0,0,4.26-1l2.42-2.49-1.95,18.81a4.28,4.28,0,0,0,.08,1.32,3.81,3.81,0,0,0,1,1.89,4.11,4.11,0,0,0,4.66,1l3.17-1.39-8.9,16.65a4.72,4.72,0,0,0-.39,1.05l-.1.45a4.24,4.24,0,0,0,.31,2.87,4.09,4.09,0,0,0,3.7,2.24l3.46,0-14.69,11.93a4.43,4.43,0,0,0-.93,1.07,3.93,3.93,0,0,0-.59,2,4.1,4.1,0,0,0,2.6,3.89l3.22,1.27Z" transform="translate(0)"></path></svg> 