<?xml version="1.0" encoding="UTF-8"?> <svg xmlns="http://www.w3.org/2000/svg" viewBox="0 0 200 200"><path d="M182.91,146.66c-.44-11.77-10.49-20.92-22.27-20.92h-8V105.42H127.27v20.32h-12V105.42H90v20.32H73.24V45.9h17a12.71,12.71,0,0,0,9.92,9.91V66.26h0a3.33,3.33,0,0,0-3.33,3.32V75A12.68,12.68,0,0,0,90,86.21v1l4,4a2.5,2.5,0,0,0,3.54,0h0a2.5,2.5,0,0,0,0-3.53l-2.47-2.47a7.66,7.66,0,0,1,15.2,0l-2.48,2.47a2.5,2.5,0,1,0,3.54,3.53l4-4v-1A12.66,12.66,0,0,0,108.47,75v-5.4a3.32,3.32,0,0,0-3.32-3.32V55.81A12.66,12.66,0,1,0,90.23,40.9H44.76v84.84h-5.4c-11.78,0-21.83,9.15-22.28,20.92a21.79,21.79,0,0,0,21.75,22.6H161.17A21.78,21.78,0,0,0,182.91,146.66Zm-78.1-72.42h-4.33V69.92h4.33ZM95.13,41.9a7.66,7.66,0,1,1,9,9A7.65,7.65,0,0,1,95.13,41.9Zm37.14,68.52H147.6v6.16H132.27Zm0,9.16H147.6v6.16H132.27ZM95,110.42h15.33v6.16H95Zm0,9.16h15.33v6.16H95ZM49.76,45.9H68.24v79.84H64.76V54.1h-3v71.64h-12ZM161.17,164.26H39.27a17.21,17.21,0,0,1-17.1-15.08h15v3.32A2.86,2.86,0,0,0,40,155.37H50.53a2.86,2.86,0,0,0,2.87-2.87v-3.32H64.51v3.32a2.86,2.86,0,0,0,2.87,2.87H77.9a2.87,2.87,0,0,0,2.87-2.87v-3.32h11.1v3.32a2.87,2.87,0,0,0,2.87,2.87h10.52a2.87,2.87,0,0,0,2.87-2.87v-3.32h11.1v3.32a2.87,2.87,0,0,0,2.87,2.87h10.52a2.86,2.86,0,0,0,2.87-2.87v-3.32H146.6v3.32a2.86,2.86,0,0,0,2.87,2.87H160a2.86,2.86,0,0,0,2.87-2.87v-3.32h15A16.78,16.78,0,0,1,161.17,164.26Zm-119-13.89v-5.74H48.4v5.74Zm27.36,0v-5.74h6.26v5.74Zm27.36,0v-5.74h6.26v5.74Zm27.36,0v-5.74h6.26v5.74Zm27.37,0v-5.74h6.25v5.74Zm11.25-4.19V142.5a2.86,2.86,0,0,0-2.87-2.87H149.47a2.86,2.86,0,0,0-2.87,2.87v3.68H135.49V142.5a2.86,2.86,0,0,0-2.87-2.87H122.1a2.87,2.87,0,0,0-2.87,2.87v3.68h-11.1V142.5a2.87,2.87,0,0,0-2.87-2.87H94.74a2.87,2.87,0,0,0-2.87,2.87v3.68H80.77V142.5a2.87,2.87,0,0,0-2.87-2.87H67.38a2.86,2.86,0,0,0-2.87,2.87v3.68H53.4V142.5a2.86,2.86,0,0,0-2.87-2.87H40a2.86,2.86,0,0,0-2.87,2.87v3.68h-15a16.77,16.77,0,0,1,16.69-15.44h121.9a17.2,17.2,0,0,1,17.14,15.44Z" transform="translate(0)"></path></svg> 