<?xml version="1.0" encoding="UTF-8"?> <svg xmlns="http://www.w3.org/2000/svg" viewBox="0 0 60 60"><path class="body" d="M31.4,6.9,30,5.4,28.6,6.9c-.7.7-16.4,17-16.4,29.7S18.4,54.1,30,54.1s17.8-6,17.8-17.5S32.1,7.6,31.4,6.9ZM30,50.1c-9.5,0-13.8-4.1-13.8-13.5S26.5,15.2,30,11.3c3.5,3.9,13.8,16.2,13.8,25.3S39.5,50.1,30,50.1Z"></path><path class="body" d="M24.4,36.3a4.6,4.6,0,0,0,5.7-5.7,4.5,4.5,0,0,0-3.2-3.2,4.6,4.6,0,0,0-5.7,5.7A4.5,4.5,0,0,0,24.4,36.3Zm.7-7a2.6,2.6,0,0,1,1.1,5.1,2.6,2.6,0,0,1-1.1-5.1Z"></path><path class="body" d="M35.6,36.1a4.6,4.6,0,0,0-5.7,5.7A4.3,4.3,0,0,0,33.1,45a4.6,4.6,0,0,0,5.7-5.7A4.7,4.7,0,0,0,35.6,36.1Zm-.7,7A2.6,2.6,0,0,1,33.8,38a2.6,2.6,0,0,1,1.1,5.1Z"></path><rect class="body" x="17.7" y="35.2" width="24.6" height="2" rx="1" transform="translate(-16.8 31.8) rotate(-45)"></rect></svg> 