<?xml version="1.0" encoding="UTF-8"?> <svg xmlns="http://www.w3.org/2000/svg" xmlns:xlink="http://www.w3.org/1999/xlink" id="Слой_1" data-name="Слой 1" viewBox="0 0 151.54076 60"><defs><style>.cls-1{fill:url(#Безымянный_градиент_3);}.cls-2{fill:#fff;}.cls-3{fill:#444;}.cls-4{fill:#6e797f;}</style><linearGradient id="Безымянный_градиент_3" x2="60" y2="60" gradientUnits="userSpaceOnUse"><stop offset="0.25" stop-color="#28a745"></stop><stop offset="1" stop-color="#1d5909"></stop></linearGradient></defs><title>logotype</title><rect class="cls-1" width="60" height="60"></rect><rect class="cls-2" x="18.46154" y="18.46154" width="32.30769" height="4.61538" rx="0.46154"></rect><rect class="cls-2" x="18.46154" y="27.69231" width="13.84615" height="4.61538" rx="0.46154"></rect><path class="cls-2" d="M18.92477,36.92308h3.68881a.46333.46333,0,0,1,.46334.46334h0v3.6887a.46333.46333,0,0,1-.46334.46334H18.92477a.46323.46323,0,0,1-.46323-.46323h0V37.38631a.46323.46323,0,0,1,.46323-.46323Z"></path><path class="cls-2" d="M50.30769,9.23077H9.69208a.4612.4612,0,0,0-.46131.46109V50.308a.46121.46121,0,0,0,.46119.46123H50.3095a.45989.45989,0,0,0,.45973-.45985V28.15216a.45987.45987,0,0,0-.45973-.45985H39.6905a.45987.45987,0,0,0-.45973.45985v3.69568a.45987.45987,0,0,0,.45973.45985h6.46335V46.15385H13.84615V13.84615H50.30769a.46152.46152,0,0,0,.46154-.46152h0V9.69231a.46154.46154,0,0,0-.46154-.46154Z"></path><path class="cls-3" d="M151.54076,16.90249h-4.485V28.77424h-4.28668V16.90249h-4.50691V13.1652h13.27853ZM123.818,25.03683v3.73741H112.694V13.1652h10.92637v3.73729h-6.63908V19.1008h5.67189v3.47354h-5.67189v2.46249Zm-21.37246-4.79272H105.15a.94951.94951,0,0,0,.73629-.43956,1.96644,1.96644,0,0,0,.34058-1.23137,1.76853,1.76853,0,0,0-.39541-1.242,1.11034,1.11034,0,0,0-.7919-.42872h-2.59394Zm-4.28663,8.53013V13.1652h7.16632a4.7397,4.7397,0,0,1,2.1107.47278,5.4734,5.4734,0,0,1,1.66,1.231,5.744,5.744,0,0,1,1.08821,1.73677,5.209,5.209,0,0,1,.39577,1.9674,5.55854,5.55854,0,0,1-.59346,2.53913,5.17439,5.17439,0,0,1-1.64869,1.92385l3.2974,5.73808h-4.8365l-2.74823-4.79272h-1.60486v4.79272Zm-12.87355-7.7828a5.31868,5.31868,0,0,0,.21955,1.52808,4.01,4.01,0,0,0,.65963,1.30816,3.33534,3.33534,0,0,0,1.11037.92342,3.7614,3.7614,0,0,0,3.19878-.011,3.25245,3.25245,0,0,0,1.1101-.94527,4.07183,4.07183,0,0,0,.63766-1.33017,5.60707,5.60707,0,0,0,.20865-1.51707,5.31737,5.31737,0,0,0-.21964-1.52783,3.76945,3.76945,0,0,0-.67052-1.2972,3.39029,3.39029,0,0,0-1.12131-.90139,3.42757,3.42757,0,0,0-1.5721-.34057,3.386,3.386,0,0,0-1.59349.35156,3.27862,3.27862,0,0,0-1.11047.93426,3.96286,3.96286,0,0,0-.64864,1.31915,5.50209,5.50209,0,0,0-.20854,1.50587Zm3.53935,7.91466a7.5111,7.5111,0,0,1-3.23174-.68146,7.99388,7.99388,0,0,1-2.48409-1.792,8.11388,8.11388,0,0,1-1.60478-2.53911,7.86047,7.86047,0,0,1-.57184-2.94592,7.66764,7.66764,0,0,1,.59345-2.96788,7.88958,7.88958,0,0,1,1.66-2.51728A8.09791,8.09791,0,0,1,85.714,13.72567a7.79682,7.79682,0,0,1,3.1988-.64867,7.51306,7.51306,0,0,1,3.2316.68149,7.90729,7.90729,0,0,1,2.48432,1.803,8.085,8.085,0,0,1,1.59392,2.55012,7.94759,7.94759,0,0,1,.56059,2.92408,7.58209,7.58209,0,0,1-.59381,2.95685,8.00415,8.00415,0,0,1-1.64871,2.50634,8.11038,8.11038,0,0,1-2.51732,1.74776,7.6892,7.6892,0,0,1-3.19865.65946Zm48.33836-6.77132a4.74089,4.74089,0,0,1,.32953,1.86877,4.92443,4.92443,0,0,1-.51624,2.36338,4.23153,4.23153,0,0,1-1.363,1.52775,5.76447,5.76447,0,0,1-1.91323.82471,13.06013,13.06013,0,0,1-8.5428-1.35053l1.45311-3.98077a10.14316,10.14316,0,0,0,5.01236,1.71451,1.846,1.846,0,0,0,.97823-.18668.57261.57261,0,0,0,.2747-.49478.70713.70713,0,0,0-.2747-.5605,2.51562,2.51562,0,0,0-.75832-.40675q-.48337-.17565-1.11046-.35192-.62606-.175-1.33-.4176a11.526,11.526,0,0,1-1.78074-.75853,4.30153,4.30153,0,0,1-1.99071-2.057,4.7423,4.7423,0,0,1-.32954-1.86864,4.92413,4.92413,0,0,1,.51636-2.36344,4.23289,4.23289,0,0,1,1.363-1.52783,5.76114,5.76114,0,0,1,1.91325-.82462,13.06043,13.06043,0,0,1,8.54267,1.35056l-1.45313,3.98062A10.14348,10.14348,0,0,0,131.1712,16.901a1.84388,1.84388,0,0,0-.97822.18682.57232.57232,0,0,0-.27477.49467.70751.70751,0,0,0,.27477.56058,2.51188,2.51188,0,0,0,.75816.40675c.32224.117.69328.23474,1.11046.35185q.626.175,1.33015.41773a11.54474,11.54474,0,0,1,1.78063.75854,4.30108,4.30108,0,0,1,1.99072,2.05686Zm-67.5525,6.63946V13.1652H80.31688v3.73729H73.89744v2.59407H79.1297V22.9701H73.89744v5.80414Z"></path><path class="cls-4" d="M135.58856,39.49337h3.51789a1.73913,1.73913,0,0,0,1.39578-.68188,2.82,2.82,0,0,0,.56062-1.84681,3.0586,3.0586,0,0,0-.17586-1.06587,2.59012,2.59012,0,0,0-.46157-.80237,1.835,1.835,0,0,0-.67077-.49477,1.98318,1.98318,0,0,0-.78013-.16514h-3.386ZM132.555,47.38581V31.7764h6.61721a4.42925,4.42925,0,0,1,1.98956.45084,5.1436,5.1436,0,0,1,1.5719,1.18725,5.59393,5.59393,0,0,1,1.03343,1.67072,5.029,5.029,0,0,1,.37354,1.87947,5.42836,5.42836,0,0,1-.35155,1.924,5.33493,5.33493,0,0,1-.9896,1.65959,4.86066,4.86066,0,0,1-1.53868,1.16545,4.45808,4.45808,0,0,1-1.97865.43942h-3.6936v5.23268Zm-9.42536-2.57252a3.48754,3.48754,0,0,0,1.81379-.43943,3.54273,3.54273,0,0,0,1.187-1.14345,4.71654,4.71654,0,0,0,.6378-1.61575A9.39807,9.39807,0,0,0,126.955,39.735V31.7764H129.967V39.735a11.41641,11.41641,0,0,1-.38464,3.01195,6.90994,6.90994,0,0,1-1.20914,2.46206,5.79746,5.79746,0,0,1-2.12152,1.67111,7.18546,7.18546,0,0,1-3.09978.61529,7.10042,7.10042,0,0,1-3.17691-.64868,5.92484,5.92484,0,0,1-2.12156-1.71451,6.84748,6.84748,0,0,1-1.17627-2.47333,11.66592,11.66592,0,0,1-.36281-2.92389V31.7764h3.03411V39.735a9.4561,9.4561,0,0,0,.18705,1.90143,4.735,4.735,0,0,0,.63716,1.61631,3.30692,3.30692,0,0,0,2.957,1.56051ZM102.28007,39.581a6.28982,6.28982,0,0,0,.30812,1.95683,5.226,5.226,0,0,0,.89,1.6706,4.25325,4.25325,0,0,0,6.72738-.0437,5.34251,5.34251,0,0,0,.87932-1.68206,6.25144,6.25144,0,0,0,.297-1.90165,6.09066,6.09066,0,0,0-.319-1.9567,5.38645,5.38645,0,0,0-.901-1.67054,4.29883,4.29883,0,0,0-1.42917-1.15443,4.45445,4.45445,0,0,0-3.85831.02184,4.33418,4.33418,0,0,0-1.42907,1.18731,5.32565,5.32565,0,0,0-.86815,1.6711A6.24614,6.24614,0,0,0,102.28007,39.581Zm4.52879,7.91444a7.10114,7.10114,0,0,1-3.11058-.67023,7.63825,7.63825,0,0,1-2.39645-1.781A8.25735,8.25735,0,0,1,99.20215,39.581a7.85,7.85,0,0,1,.58288-2.98969,8.249,8.249,0,0,1,1.60485-2.52818,7.65379,7.65379,0,0,1,2.42927-1.7479,7.21526,7.21526,0,0,1,3.05589-.6485,6.85789,6.85789,0,0,1,3.08881.6925,7.72027,7.72027,0,0,1,2.38527,1.81379,8.3562,8.3562,0,0,1,1.53882,2.55029,8.03662,8.03662,0,0,1,.55,2.90155,7.90243,7.90243,0,0,1-.572,2.97924A8.0902,8.0902,0,0,1,112.283,45.11a7.60485,7.60485,0,0,1-2.41823,1.73677A7.21578,7.21578,0,0,1,106.80886,47.49544ZM88.9128,39.49337h3.80308a1.60459,1.60459,0,0,0,.78055-.19809,2.00079,2.00079,0,0,0,.62668-.53861,2.69064,2.69064,0,0,0,.4176-.8024,3.1071,3.1071,0,0,0,.15383-.98959,2.82632,2.82632,0,0,0-.17571-1.01091,2.63888,2.63888,0,0,0-.4728-.80251,2.14027,2.14027,0,0,0-.68151-.52761,1.77437,1.77437,0,0,0-.78051-.18712H88.9128Zm-3.034,7.89244V31.7764H92.782a4.43122,4.43122,0,0,1,1.9897.45084,5.14764,5.14764,0,0,1,1.57148,1.18725,5.60363,5.60363,0,0,1,1.03334,1.67072,5.027,5.027,0,0,1,.37388,1.87947,5.19087,5.19087,0,0,1-.75853,2.75938,4.35586,4.35586,0,0,1-2.05546,1.79181l3.56118,5.86994H95.0903l-3.18779-5.23268H88.9128v5.23268Zm-5.14422-1.75914a5.968,5.968,0,0,1-4.35309,1.86878,6.89637,6.89637,0,0,1-2.8908-.61529,7.31278,7.31278,0,0,1-2.35246-1.693A8.08351,8.08351,0,0,1,69.5553,42.648a8.44619,8.44619,0,0,1-.58241-3.15457A7.925,7.925,0,0,1,71.1601,33.986a7.69233,7.69233,0,0,1,2.40742-1.693,7.22115,7.22115,0,0,1,3.012-.6263,7.31509,7.31509,0,0,1,3.77026.92327,5.97621,5.97621,0,0,1,2.36355,2.4841l-2.26455,1.67107a4.2017,4.2017,0,0,0-1.66-1.781,4.55873,4.55873,0,0,0-2.31919-.61548,3.95734,3.95734,0,0,0-1.81386.41776,4.24386,4.24386,0,0,0-1.407,1.14331,5.39385,5.39385,0,0,0-.90139,1.67074,6.22021,6.22021,0,0,0-.31873,2.00047,5.91059,5.91059,0,0,0,.35155,2.05546,5.23536,5.23536,0,0,0,.96734,1.66,4.526,4.526,0,0,0,1.46229,1.11024,4.17989,4.17989,0,0,0,1.83544.40661,5.3215,5.3215,0,0,0,4.08932-2.13248V41.5817h-3.144V39.36108H83.2409v8.02473H80.73461Z"></path></svg> 